<svg xmlns="http://www.w3.org/2000/svg" viewBox="0 0 669.54 768.47"><defs><style>.cls-1{fill:#c0c9ff;}.cls-14,.cls-2,.cls-5,.cls-6{fill:#fff;}.cls-10,.cls-11,.cls-12,.cls-3,.cls-8{fill:none;}.cls-10,.cls-11,.cls-3,.cls-8{stroke:#30384f;}.cls-11,.cls-3,.cls-8{stroke-linecap:round;stroke-linejoin:round;}.cls-3{stroke-width:2px;}.cls-13,.cls-4,.cls-7{fill:#30384f;}.cls-5{font-size:23px;}.cls-13,.cls-14,.cls-5,.cls-6,.cls-7{font-family:Norwester-Regular, Norwester;}.cls-6{font-size:18px;}.cls-7{font-size:33px;}.cls-8{stroke-width:1.8px;}.cls-9{fill:#ff395a;}.cls-10{stroke-miterlimit:10;}.cls-10,.cls-11{stroke-width:3px;}.cls-13{font-size:15px;}.cls-14{font-size:71px;}</style></defs><title>Asset 1</title><g id="Layer_2" data-name="Layer 2"><g id="floor_1_copy" data-name="floor 1 copy"><rect class="cls-1" x="48.54" y="545.47" width="98" height="81" rx="5"/><rect class="cls-1" x="48.54" y="458.47" width="98" height="81" rx="5"/><rect class="cls-1" x="172.54" y="545.47" width="95" height="81" rx="5"/><rect class="cls-1" x="172.54" y="458.47" width="95" height="81" rx="5"/><rect class="cls-1" x="269.54" y="545.47" width="95" height="81" rx="5"/><rect class="cls-1" x="269.54" y="458.47" width="95" height="81" rx="5"/><path class="cls-1" d="M536.54,448.47h128a5,5,0,0,1,5,5v84a69,69,0,0,1-69,69h-64a5,5,0,0,1-5-5v-148a5,5,0,0,1,5-5Z"/><rect class="cls-1" x="432.54" y="459.47" width="95" height="81" rx="5"/><rect class="cls-1" x="432.54" y="544.47" width="95" height="81" rx="5"/><rect class="cls-1" x="370.54" y="458.47" width="40" height="40" rx="5"/><rect class="cls-1" x="370.54" y="501.97" width="40" height="40" rx="5"/><rect class="cls-1" x="370.54" y="545.47" width="40" height="20" rx="5"/><rect class="cls-1" x="370.54" y="568.97" width="40" height="26" rx="5"/><rect class="cls-1" x="370.54" y="598.47" width="40" height="28" rx="5"/><rect class="cls-1" x="49.54" y="403.47" width="94" height="52" rx="5"/><path class="cls-1" d="M174.54,654.47a5,5,0,0,1,5-5h59a5,5,0,0,1,5,5v82a5.27,5.27,0,0,1-5,5.21l-59,2.57a4.76,4.76,0,0,1-5-4.78Z"/><path class="cls-1" d="M247.54,654.47a5,5,0,0,1,5-5h48a5,5,0,0,1,5,5v80a5.22,5.22,0,0,1-5,5.17l-48,1.66a4.82,4.82,0,0,1-5-4.83Z"/><path class="cls-1" d="M309.54,654.47a5,5,0,0,1,5-5h45a5,5,0,0,1,5,5v78a5.23,5.23,0,0,1-5,5.18l-45,1.64a4.8,4.8,0,0,1-5-4.82Z"/><path class="cls-1" d="M58.54,681.47a5,5,0,0,1,5-5h101a5.11,5.11,0,0,1,5.08,5l.85,58a4.93,4.93,0,0,1-4.93,5h-22a5,5,0,0,0-5,5h0a5,5,0,0,1-5,5h-70a5,5,0,0,1-5-5Z"/><rect class="cls-1" x="58.54" y="645.47" width="93" height="28" rx="5"/><rect class="cls-1" x="367.54" y="653.47" width="40" height="40.48" rx="5"/><rect class="cls-1" x="367.54" y="697.49" width="40" height="40.48" rx="5"/><path class="cls-1" d="M131.67,269.34a3.8,3.8,0,0,1,3.87-4.87h87a5,5,0,0,1,5,5v72a5,5,0,0,1-5,5h-68a6.6,6.6,0,0,1-6.12-4.87Z"/><path class="cls-1" d="M155.54,349.47a4,4,0,0,0-4,4.9l14,70.19a6.37,6.37,0,0,0,6,4.91h39a5,5,0,0,0,5-5v-70a5,5,0,0,0-5-5Z"/><rect class="cls-1" x="217.54" y="349.47" width="96" height="80" rx="5"/><rect class="cls-1" x="229.54" y="264.47" width="83" height="82" rx="5"/><rect class="cls-1" x="315.54" y="264.47" width="95" height="82" rx="5"/><rect class="cls-1" x="315.54" y="349.47" width="95" height="80" rx="5"/><rect class="cls-1" x="1.54" y="124.47" width="54" height="113" rx="5"/><rect class="cls-1" x="171.54" y="171.47" width="88" height="66" rx="5"/><path class="cls-1" d="M171.54,118.47a5,5,0,0,1,5-5h102a5,5,0,0,1,5,5v71a5,5,0,0,1-5,5h-11a5,5,0,0,1-5-5v-17a5,5,0,0,0-5-5h-81a5,5,0,0,1-5-5Z"/><path class="cls-1" d="M47.54,108.47a5,5,0,0,0-5,5v2a5,5,0,0,0,5,5h7a5,5,0,0,1,5,5v71a5,5,0,0,0,5,5h61a5,5,0,0,1,5,5v22a5,5,0,0,0,5,5h12a5,5,0,0,0,5-5v-43a5,5,0,0,1,5-5h6a5,5,0,0,0,5-5v-46a5,5,0,0,0-5-5h-1a5,5,0,0,1-5-5v-6a5,5,0,0,0-5-5Z"/><path class="cls-1" d="M291.54,143.47a5,5,0,0,0-5,5v27a5,5,0,0,0,5,5h88.14a5,5,0,0,1,5,5v6a5,5,0,0,0,5,5h5.5a5,5,0,0,0,5-5v-20a5,5,0,0,1,5-5h1.36a5,5,0,0,0,5-5v-19a5,5,0,0,0-5-5H303.33c-2.75,0-5,1.35-5,3s-2.25,3-5,3Z"/><path class="cls-1" d="M422.54,163.47a5,5,0,0,1,5-5h52a5,5,0,0,1,5,5v16c0,2.75-1.57,5-3.5,5s-3.5,2.25-3.5,5v10a5,5,0,0,1-5,5h-35a5,5,0,0,0-5,5v21a5,5,0,0,1-5,5h-20a5,5,0,0,1-5-5v-57a5,5,0,0,1,5-5h10a5,5,0,0,0,5-5Z"/><path class="cls-1" d="M286.54,189.47a5,5,0,0,1,5-5h8a5,5,0,0,1,5,5v19a5,5,0,0,1-5,5h-15a5,5,0,0,1-5-5v-4c0-2.75,1.58-5,3.5-5s3.5-2.25,3.5-5Z"/><rect class="cls-1" x="279.54" y="216.47" width="27" height="21" rx="5"/><rect class="cls-1" x="307.54" y="185.47" width="22" height="39" rx="4.79"/><rect class="cls-1" x="333.04" y="185.47" width="24" height="39" rx="5"/><rect class="cls-1" x="359.54" y="185.47" width="24" height="39" rx="5"/><rect class="cls-1" x="434.54" y="258.47" width="119" height="58" rx="5"/><rect class="cls-1" x="434.54" y="322.47" width="119" height="115" rx="5"/><rect class="cls-1" x="484.54" y="184.47" width="51.41" height="46" rx="4.51"/></g><g id="floor_1_stuff" data-name="floor 1 stuff"><polygon class="cls-2" points="443.92 224.54 442.07 222.7 448.48 216.29 454.58 222.39 452.73 224.23 448.48 219.98 443.92 224.54"/><polygon class="cls-2" points="462.01 224.34 455.91 218.25 457.75 216.4 462.01 220.65 466.57 216.09 468.42 217.93 462.01 224.34"/><path class="cls-2" d="M464.24,236.32h-18a7,7,0,0,1-7-7v-18a7,7,0,0,1,7-7h18a7,7,0,0,1,7,7v18A7,7,0,0,1,464.24,236.32Zm-18-30a5,5,0,0,0-5,5v18a5,5,0,0,0,5,5h18a5,5,0,0,0,5-5v-18a5,5,0,0,0-5-5Z"/><rect class="cls-3" x="52.24" y="410.32" width="38.3" height="38.3" rx="7.66"/><polygon class="cls-4" points="80.33 434.79 72.28 426.73 74.71 424.3 80.33 429.91 86.36 423.88 88.79 426.32 80.33 434.79"/><polygon class="cls-4" points="56.43 435.05 53.99 432.62 62.46 424.15 70.51 432.2 68.08 434.64 62.46 429.02 56.43 435.05"/><text class="cls-5" transform="translate(45.23 335.38)">BYTES</text><text class="cls-6" transform="translate(47.8 256.59)">CHECK-IN</text><text class="cls-7" transform="translate(191.81 216.75)">109</text><text class="cls-7" transform="translate(578.58 518.95)">138</text><text class="cls-7" transform="translate(89.14 725.42)">143</text><text class="cls-7" transform="translate(185.55 708.45)">142</text><text class="cls-7" transform="translate(256.36 706.95)">141</text><text class="cls-7" transform="translate(315.1 705.95)">139</text><text class="cls-7" transform="translate(198.12 510.45)">129</text><text class="cls-7" transform="translate(294.74 510.45)">127</text><text class="cls-7" transform="translate(198.1 597.45)">135</text><text class="cls-7" transform="translate(75.6 510.45)">132</text><text class="cls-7" transform="translate(75.91 597.45)">133</text><text class="cls-7" transform="translate(208.58 152.89)">110</text><text class="cls-7" transform="translate(327.62 170.9)">117</text><text class="cls-7" transform="translate(458.12 511.45)">125</text><text class="cls-7" transform="translate(343.94 316.95)">121</text><text class="cls-7" transform="translate(243.62 400.95)">128</text><text class="cls-7" transform="translate(341.1 400.95)">126</text><polygon class="cls-8" points="518.72 189.24 518.72 198.16 509.81 198.16 509.81 207.07 500.89 207.07 500.89 215.99 491.97 215.99 491.97 227.07 496.3 227.07 496.3 220.32 505.22 220.32 505.22 211.4 514.13 211.4 514.13 202.49 523.05 202.49 523.05 193.57 529.8 193.57 529.8 189.24 518.72 189.24"/><polygon class="cls-4" points="508.63 195.29 512.44 191.47 512.45 193.48 514.56 193.48 514.55 187.86 508.94 187.87 508.94 189.98 510.95 189.98 507.13 193.8 508.63 195.29"/><polygon class="cls-4" points="496.63 205.01 492.81 208.83 492.81 206.82 490.7 206.82 490.7 212.44 496.32 212.44 496.32 210.32 494.31 210.33 498.12 206.5 496.63 205.01"/><polygon class="cls-3" points="126.26 408.05 126.26 417.93 116.37 417.93 116.37 427.82 106.49 427.82 106.49 437.7 96.6 437.7 96.6 449.99 101.4 449.99 101.4 442.5 111.29 442.5 111.29 432.62 121.17 432.62 121.17 422.73 131.06 422.73 131.06 412.85 138.54 412.85 138.54 408.05 126.26 408.05"/><polygon class="cls-4" points="115.07 414.76 119.31 410.52 119.31 412.75 121.65 412.75 121.65 406.53 115.42 406.53 115.42 408.87 117.65 408.87 113.42 413.1 115.07 414.76"/><polygon class="cls-4" points="101.76 425.53 97.53 429.76 97.53 427.53 95.19 427.53 95.19 433.76 101.41 433.76 101.41 431.42 99.18 431.42 103.42 427.18 101.76 425.53"/><polygon class="cls-9" points="157.06 422 154.68 410.21 160.14 413.84 161.78 411.37 152.09 404.94 145.67 414.63 148.14 416.26 151.77 410.8 154.15 422.59 157.06 422"/><polygon class="cls-9" points="17.7 443.13 5.68 443.13 10.31 438.5 8.22 436.4 0 444.62 8.22 452.83 10.31 450.74 5.68 446.1 17.7 446.1 17.7 443.13"/><polygon class="cls-9" points="17.7 635.13 5.68 635.13 10.31 630.5 8.22 628.4 0 636.62 8.22 644.83 10.31 642.74 5.68 638.1 17.7 638.1 17.7 635.13"/><polygon class="cls-9" points="507.7 660.13 495.68 660.13 500.31 655.5 498.22 653.4 490 661.62 498.22 669.83 500.31 667.74 495.68 663.1 507.7 663.1 507.7 660.13"/><polygon class="cls-9" points="522.3 660.13 534.32 660.13 529.69 655.5 531.78 653.4 540 661.62 531.78 669.83 529.69 667.74 534.32 663.1 522.3 663.1 522.3 660.13"/><polygon class="cls-9" points="159.67 768.47 159.67 756.45 155.03 761.08 152.93 758.98 161.15 750.77 169.37 758.98 167.27 761.08 162.63 756.45 162.63 768.47 159.67 768.47"/><polygon class="cls-9" points="236.67 767.47 236.67 755.45 232.03 760.08 229.93 757.98 238.15 749.77 246.37 757.98 244.27 760.08 239.63 755.45 239.63 767.47 236.67 767.47"/><polygon class="cls-9" points="299.67 765.47 299.67 753.45 295.03 758.08 292.93 755.98 301.15 747.77 309.37 755.98 307.27 758.08 302.63 753.45 302.63 765.47 299.67 765.47"/><polygon class="cls-9" points="356.67 762.47 356.67 750.45 352.03 755.08 349.93 752.98 358.15 744.77 366.37 752.98 364.27 755.08 359.63 750.45 359.63 762.47 356.67 762.47"/><polygon class="cls-9" points="522.3 237.13 534.32 237.13 529.69 232.5 531.78 230.4 540 238.62 531.78 246.83 529.69 244.74 534.32 240.1 522.3 240.1 522.3 237.13"/><polygon class="cls-9" points="425.54 685.79 417.02 685.79 420.31 682.5 418.82 681.02 413 686.84 418.82 692.66 420.31 691.17 417.02 687.89 425.54 687.89 425.54 685.79"/><polygon class="cls-9" points="425.54 729.96 417.02 729.96 420.31 726.67 418.82 725.19 413 731.01 418.82 736.83 420.31 735.35 417.02 732.06 425.54 732.06 425.54 729.96"/><polygon class="cls-9" points="21.3 266.13 33.32 266.13 28.69 261.5 30.78 259.4 39 267.62 30.78 275.83 28.69 273.74 33.32 269.1 21.3 269.1 21.3 266.13"/><circle class="cls-10" cx="390.54" cy="511.72" r="3.88" transform="translate(-35.29 28.97) rotate(-4.07)"/><path class="cls-10" d="M394.91,517.23h-8.73c-1.94,0-3.19,2.63-2.33,4.86l4.93,12.71a1.85,1.85,0,0,0,3.53,0l4.93-12.71C398.1,519.86,396.84,517.23,394.91,517.23Z"/><circle class="cls-10" cx="390.54" cy="468.22" r="3.88" transform="translate(-32.21 28.86) rotate(-4.07)"/><path class="cls-10" d="M385.06,492.6h11c1.94,0,3.2-2.41,2.33-4.45l-5.78-13.43a1.9,1.9,0,0,0-1.78-1.28h-.4a1.89,1.89,0,0,0-1.78,1.27l-5.88,13.44C381.87,490.19,383.13,492.6,385.06,492.6Z"/><circle class="cls-11" cx="387.54" cy="663.46" r="3.88" transform="translate(-46.06 29.14) rotate(-4.07)"/><path class="cls-11" d="M391.91,669h-8.73c-1.94,0-3.19,2.63-2.33,4.86l4.93,12.71a1.85,1.85,0,0,0,3.53,0l4.93-12.71C395.1,671.6,393.84,669,391.91,669Z"/><circle class="cls-10" cx="387.54" cy="707.48" r="3.88" transform="translate(-49.18 29.25) rotate(-4.07)"/><path class="cls-10" d="M382.06,731.86h11c1.94,0,3.2-2.41,2.33-4.45L389.57,714a1.9,1.9,0,0,0-1.78-1.28h-.4a1.89,1.89,0,0,0-1.78,1.27l-5.88,13.44C378.87,729.45,380.13,731.86,382.06,731.86Z"/><circle class="cls-10" cx="345.04" cy="194.72" r="3.88" transform="translate(-12.94 24.95) rotate(-4.07)"/><path class="cls-10" d="M349.41,200.23h-8.73c-1.94,0-3.19,2.63-2.33,4.86l4.93,12.71a1.85,1.85,0,0,0,3.53,0l4.93-12.71C352.6,202.86,351.34,200.23,349.41,200.23Z"/><circle class="cls-10" cx="371.54" cy="194.72" r="3.88" transform="matrix(1, -0.07, 0.07, 1, -12.87, 26.83)"/><path class="cls-10" d="M366.06,219.1h11c1.94,0,3.2-2.41,2.33-4.45l-5.78-13.43a1.9,1.9,0,0,0-1.78-1.28h-.4a1.89,1.89,0,0,0-1.78,1.27l-5.88,13.44C362.87,216.69,364.13,219.1,366.06,219.1Z"/><path class="cls-2" d="M135.58,336.6l-12.5-12.51a.5.5,0,0,1,0-.7l12.55-12.74a.55.55,0,0,1,.36-.15h.09a.47.47,0,0,1,.36.28c.74,1.59.89,4.2-2.53,7.62l-5.31,5.31a1.07,1.07,0,0,0,.76,1.83,1,1,0,0,0,.76-.32l5.31-5.31c4.19-4.2,4.77-8.83,1.5-12.1a1,1,0,0,0-.73-.32,1.15,1.15,0,0,0-.79.32l-13.84,14.05a.58.58,0,0,1-.36.15h0a.51.51,0,0,1-.35-.15l-2.08-2.08a.5.5,0,0,1,0-.71l.38-.38a4.81,4.81,0,0,0,0-6.79l-5.22-5.17a1.08,1.08,0,0,0-.76-.31,1.07,1.07,0,0,0-.76.31,1.1,1.1,0,0,0-.31.76,1,1,0,0,0,.32.76l5.22,5.17a2.66,2.66,0,0,1,0,3.75l-.39.39a.51.51,0,0,1-.7,0l-6.72-6.73a1.08,1.08,0,0,0-.76-.31,1.07,1.07,0,0,0-.76.31,1.08,1.08,0,0,0-.31.76,1.07,1.07,0,0,0,.31.76l6.72,6.72a.5.5,0,0,1,0,.71l-.33.33a2.66,2.66,0,0,1-3.76,0l-5.22-5.18a1.06,1.06,0,0,0-.75-.31,1.07,1.07,0,0,0-.76.32,1,1,0,0,0-.32.76,1.14,1.14,0,0,0,.32.76l5.22,5.17a4.8,4.8,0,0,0,6.78,0l.34-.34a.51.51,0,0,1,.7,0l2.1,2.1a.5.5,0,0,1,0,.7L107,336.6a1.07,1.07,0,0,0,0,1.52,1.06,1.06,0,0,0,.75.31,1.12,1.12,0,0,0,.77-.32l12.3-12.49a.52.52,0,0,1,.36-.14h0a.5.5,0,0,1,.35.14l12.49,12.49a1.07,1.07,0,1,0,1.51-1.51Z"/><path class="cls-12" d="M132,248.28a2.15,2.15,0,1,0,2.14-2.14A2.14,2.14,0,0,0,132,248.28Z"/><path class="cls-12" d="M119.68,255.33h8.25c.94-1.6,3.46-2.41,4.35-2.71a.87.87,0,0,1,.32-.06.64.64,0,0,1,.2,0l1.36.48,1.37-.48a.86.86,0,0,1,.52,0,10.54,10.54,0,0,1,3.89,2.14V243.6H119.68Zm14.48-10.79a3.74,3.74,0,1,1-3.74,3.74A3.75,3.75,0,0,1,134.16,244.54Zm-11.64,1.19h4.65a.8.8,0,0,1,0,1.6h-4.65a.8.8,0,1,1,0-1.6Zm0,2.94h4.65a.8.8,0,0,1,0,1.6h-4.65a.8.8,0,1,1,0-1.6Zm0,2.93h2.69a.8.8,0,0,1,0,1.6h-2.69a.8.8,0,0,1,0-1.6Z"/><path class="cls-12" d="M133.9,254.69l-1.37-.47a7,7,0,0,0-2.25,1.11h7.77a7,7,0,0,0-2.26-1.1l-1.36.45a.81.81,0,0,1-.53,0Z"/><path class="cls-2" d="M122.52,247.08h4.65a.54.54,0,0,0,.55-.55.55.55,0,0,0-.55-.55h-4.65a.55.55,0,0,0-.55.55A.55.55,0,0,0,122.52,247.08Z"/><path class="cls-2" d="M130.67,248.28a3.5,3.5,0,1,0,3.49-3.49A3.49,3.49,0,0,0,130.67,248.28Zm3.49-2.39a2.39,2.39,0,1,1-2.39,2.39A2.4,2.4,0,0,1,134.16,245.89Z"/><path class="cls-2" d="M140.32,241.72h-21a1.51,1.51,0,0,0-1.51,1.51v12.48a1.52,1.52,0,0,0,1.51,1.51h21a1.52,1.52,0,0,0,1.51-1.51V243.23A1.51,1.51,0,0,0,140.32,241.72Zm-2,13.7a.25.25,0,0,1-.24.16h-7.77a.25.25,0,0,1-.24-.16.25.25,0,0,1,.07-.27A6.65,6.65,0,0,1,132.3,254l.15,0,.08,0,.09,0,1.36.46a.47.47,0,0,0,.17,0l.2,0,1.36-.46h.17l.17.07a6.33,6.33,0,0,1,2.17,1.09A.27.27,0,0,1,138.29,255.42Zm1.9-.69a.25.25,0,0,1-.15.23l-.1,0a.27.27,0,0,1-.18-.08,10.33,10.33,0,0,0-3.79-2.07.56.56,0,0,0-.36,0l-1.36.48h-.17l-1.36-.48-.12,0a.75.75,0,0,0-.24,0l-.07,0c-.89.3-3.27,1.1-4.15,2.58a.24.24,0,0,1-.21.12h-8.25a.25.25,0,0,1-.25-.25V243.6a.25.25,0,0,1,.25-.25h20.26a.25.25,0,0,1,.25.25Z"/><path class="cls-2" d="M122.52,253h2.69a.55.55,0,0,0,0-1.1h-2.69a.55.55,0,0,0,0,1.1Z"/><path class="cls-2" d="M122.52,250h4.65a.55.55,0,0,0,.55-.55.54.54,0,0,0-.55-.55h-4.65a.55.55,0,0,0-.55.55A.55.55,0,0,0,122.52,250Z"/><polygon class="cls-3" points="114.26 158.05 114.26 167.93 104.37 167.93 104.37 177.82 94.49 177.82 94.49 187.7 84.6 187.7 84.6 199.99 89.4 199.99 89.4 192.5 99.29 192.5 99.29 182.62 109.17 182.62 109.17 172.73 119.06 172.73 119.06 162.85 126.54 162.85 126.54 158.05 114.26 158.05"/><polygon class="cls-4" points="103.07 164.76 107.31 160.52 107.31 162.75 109.65 162.75 109.65 156.53 103.42 156.53 103.42 158.87 105.65 158.87 101.42 163.1 103.07 164.76"/><polygon class="cls-4" points="89.76 175.53 85.53 179.76 85.53 177.53 83.19 177.53 83.19 183.76 89.41 183.76 89.41 181.42 87.18 181.42 91.42 177.18 89.76 175.53"/><path class="cls-4" d="M157.54,677.85a9.1,9.1,0,0,0-9,9.1,8.23,8.23,0,0,0,3.61,7.17v3a1.3,1.3,0,0,0,1.28,1.2h.11l8.26-.66a1.24,1.24,0,0,0,1.15-1.2v-2.26a8.89,8.89,0,0,0,3.6-7.19A9.08,9.08,0,0,0,157.54,677.85Zm3.59,14.55a1.17,1.17,0,0,0-.59,1.06v1.83l-6,.48v-2.31a1.16,1.16,0,0,0-.54-1A5.88,5.88,0,0,1,151,687a6.59,6.59,0,1,1,13.17,0A6,6,0,0,1,161.13,692.4Zm1.71,7.75a1.21,1.21,0,0,1-1.11,1.29l-8.2.6h-.08a1.2,1.2,0,0,1-.09-2.4l8.2-.6A1.2,1.2,0,0,1,162.84,700.15Zm-2.62,3.79a1.19,1.19,0,0,1-1.09,1.29l-3,.23h-.09a1.2,1.2,0,0,1-.09-2.4l3-.23A1.19,1.19,0,0,1,160.22,703.94Zm2.11-17a1.05,1.05,0,0,1-1,1h-.11a1,1,0,0,1-.93-1.15,2.31,2.31,0,0,0-1.51-2.39,1.05,1.05,0,0,1-.62-1.35,1,1,0,0,1,1.32-.63A4.41,4.41,0,0,1,162.33,686.93Z"/><text class="cls-13" transform="translate(542.13 541.34)">opening &amp; closing <tspan x="21.72" y="18">ceremonies</tspan></text><path class="cls-4" d="M232.54,650.85a9.1,9.1,0,0,0-9,9.1,8.23,8.23,0,0,0,3.61,7.17v3a1.3,1.3,0,0,0,1.28,1.2h.11l8.26-.66a1.24,1.24,0,0,0,1.15-1.2v-2.26a8.89,8.89,0,0,0,3.6-7.19A9.08,9.08,0,0,0,232.54,650.85Zm3.59,14.55a1.17,1.17,0,0,0-.59,1.06v1.83l-6,.48v-2.31a1.16,1.16,0,0,0-.54-1A5.88,5.88,0,0,1,226,660a6.59,6.59,0,1,1,13.17,0A6,6,0,0,1,236.13,665.4Zm1.71,7.75a1.21,1.21,0,0,1-1.11,1.29l-8.2.6h-.08a1.2,1.2,0,0,1-.09-2.4l8.2-.6A1.2,1.2,0,0,1,237.84,673.15Zm-2.62,3.79a1.19,1.19,0,0,1-1.09,1.29l-3,.23h-.09a1.2,1.2,0,0,1-.09-2.4l3-.23A1.19,1.19,0,0,1,235.22,676.94Zm2.11-17a1.05,1.05,0,0,1-1,1h-.11a1,1,0,0,1-.93-1.15,2.31,2.31,0,0,0-1.51-2.39,1.05,1.05,0,0,1-.62-1.35,1,1,0,0,1,1.32-.63A4.41,4.41,0,0,1,237.33,659.93Z"/><path class="cls-4" d="M294.54,650.85a9.1,9.1,0,0,0-9,9.1,8.23,8.23,0,0,0,3.61,7.17v3a1.3,1.3,0,0,0,1.28,1.2h.11l8.26-.66a1.24,1.24,0,0,0,1.15-1.2v-2.26a8.89,8.89,0,0,0,3.6-7.19A9.08,9.08,0,0,0,294.54,650.85Zm3.59,14.55a1.17,1.17,0,0,0-.59,1.06v1.83l-6,.48v-2.31a1.16,1.16,0,0,0-.54-1A5.88,5.88,0,0,1,288,660a6.59,6.59,0,1,1,13.17,0A6,6,0,0,1,298.13,665.4Zm1.71,7.75a1.21,1.21,0,0,1-1.11,1.29l-8.2.6h-.08a1.2,1.2,0,0,1-.09-2.4l8.2-.6A1.2,1.2,0,0,1,299.84,673.15Zm-2.62,3.79a1.19,1.19,0,0,1-1.09,1.29l-3,.23h-.09a1.2,1.2,0,0,1-.09-2.4l3-.23A1.19,1.19,0,0,1,297.22,676.94Zm2.11-17a1.05,1.05,0,0,1-1,1h-.11a1,1,0,0,1-.93-1.15,2.31,2.31,0,0,0-1.51-2.39,1.05,1.05,0,0,1-.62-1.35,1,1,0,0,1,1.32-.63A4.41,4.41,0,0,1,299.33,659.93Z"/><path class="cls-4" d="M353.54,650.85a9.1,9.1,0,0,0-9,9.1,8.23,8.23,0,0,0,3.61,7.17v3a1.3,1.3,0,0,0,1.28,1.2h.11l8.26-.66a1.24,1.24,0,0,0,1.15-1.2v-2.26a8.89,8.89,0,0,0,3.6-7.19A9.08,9.08,0,0,0,353.54,650.85Zm3.59,14.55a1.17,1.17,0,0,0-.59,1.06v1.83l-6,.48v-2.31a1.16,1.16,0,0,0-.54-1A5.88,5.88,0,0,1,347,660a6.59,6.59,0,1,1,13.17,0A6,6,0,0,1,357.13,665.4Zm1.71,7.75a1.21,1.21,0,0,1-1.11,1.29l-8.2.6h-.08a1.2,1.2,0,0,1-.09-2.4l8.2-.6A1.2,1.2,0,0,1,358.84,673.15Zm-2.62,3.79a1.19,1.19,0,0,1-1.09,1.29l-3,.23h-.09a1.2,1.2,0,0,1-.09-2.4l3-.23A1.19,1.19,0,0,1,356.22,676.94Zm2.11-17a1.05,1.05,0,0,1-1,1h-.11a1,1,0,0,1-.93-1.15,2.31,2.31,0,0,0-1.51-2.39,1.05,1.05,0,0,1-.62-1.35,1,1,0,0,1,1.32-.63A4.41,4.41,0,0,1,358.33,659.93Z"/><path class="cls-4" d="M222.48,652.52a1.11,1.11,0,0,0-1-1,16.28,16.28,0,0,0-14.86,7,6.3,6.3,0,0,0-5.15.57,9.54,9.54,0,0,0-3.82,4.26,1.09,1.09,0,0,0,1.49,1.42,4.14,4.14,0,0,1,4.88.43l4.79,4.79,0,0a4.1,4.1,0,0,1,.43,4.86,1.1,1.1,0,0,0,1,1.6,1.12,1.12,0,0,0,.47-.11,9.43,9.43,0,0,0,4.25-3.81,6.29,6.29,0,0,0,.57-5.18,18.19,18.19,0,0,0,3.26-3A15.61,15.61,0,0,0,222.48,652.52ZM201.19,662a4.82,4.82,0,0,1,4.19-1.57,18.4,18.4,0,0,0-1.11,2.28A6.13,6.13,0,0,0,201.19,662ZM212,672.83a6,6,0,0,0-.72-3.1,22.13,22.13,0,0,0,2.29-1.13A4.79,4.79,0,0,1,212,672.83ZM209.87,668,206,664.14c1.92-5.15,6.69-10.64,14.33-10.49C220.62,662.75,213.11,666.69,209.87,668Zm7-10.83a1.77,1.77,0,1,1-3,1.25,1.82,1.82,0,0,1,.51-1.25,1.79,1.79,0,0,1,2.5,0Zm-15.3,11.29c-1.25,1.25-1.3,3.75-1.3,4.23a1.11,1.11,0,0,0,1.08,1.1h0c.56,0,3-.09,4.18-1.31a2.92,2.92,0,0,0,.94-2.07,2.85,2.85,0,0,0-.88-2A2.75,2.75,0,0,0,201.59,668.42Zm2.47,2.46a3.1,3.1,0,0,1-1.49.56,3.11,3.11,0,0,1,.56-1.48.77.77,0,0,1,.53-.3.63.63,0,0,1,.45.24.67.67,0,0,1,.24.46A.85.85,0,0,1,204.06,670.88Z"/><path class="cls-4" d="M166.48,710.52a1.11,1.11,0,0,0-1-1,16.28,16.28,0,0,0-14.86,7,6.3,6.3,0,0,0-5.15.57,9.54,9.54,0,0,0-3.82,4.26,1.09,1.09,0,0,0,1.49,1.42,4.14,4.14,0,0,1,4.88.43l4.79,4.79,0,0a4.1,4.1,0,0,1,.43,4.86,1.1,1.1,0,0,0,1,1.6,1.12,1.12,0,0,0,.47-.11,9.43,9.43,0,0,0,4.25-3.81,6.29,6.29,0,0,0,.57-5.18,18.19,18.19,0,0,0,3.26-3A15.61,15.61,0,0,0,166.48,710.52ZM145.19,720a4.82,4.82,0,0,1,4.19-1.57,18.4,18.4,0,0,0-1.11,2.28A6.13,6.13,0,0,0,145.19,720ZM156,730.83a6,6,0,0,0-.72-3.1,22.13,22.13,0,0,0,2.29-1.13A4.79,4.79,0,0,1,156,730.83ZM153.87,726,150,722.14c1.92-5.15,6.69-10.64,14.33-10.49C164.62,720.75,157.11,724.69,153.87,726Zm7-10.83a1.77,1.77,0,1,1-3,1.25,1.82,1.82,0,0,1,.51-1.25,1.79,1.79,0,0,1,2.5,0Zm-15.3,11.29c-1.25,1.25-1.3,3.75-1.3,4.23a1.11,1.11,0,0,0,1.08,1.1h0c.56,0,3-.09,4.18-1.31a2.92,2.92,0,0,0,.94-2.07,2.85,2.85,0,0,0-.88-2A2.75,2.75,0,0,0,145.59,726.42Zm2.47,2.46a3.1,3.1,0,0,1-1.49.56,3.11,3.11,0,0,1,.56-1.48.77.77,0,0,1,.53-.3.63.63,0,0,1,.45.24.67.67,0,0,1,.24.46A.85.85,0,0,1,148.06,728.88Z"/><path class="cls-12" d="M120.28,369.54c4.92-1.93,16.34-7.92,15.95-21.76h-.46c-11.34,0-18.44,8.24-21.32,16Zm6.87-16.46a2.68,2.68,0,1,1,0,3.8,2.7,2.7,0,0,1,0-3.8Z"/><path class="cls-12" d="M123.54,376.93a7.26,7.26,0,0,0,2.39-6.42,33.86,33.86,0,0,1-3.47,1.71A9.16,9.16,0,0,1,123.54,376.93Z"/><path class="cls-12" d="M111.44,374a1.28,1.28,0,0,0,.45-.8,1.08,1.08,0,0,0-.36-.7,1,1,0,0,0-.7-.36,1.2,1.2,0,0,0-.8.45,4.65,4.65,0,0,0-.84,2.25A4.63,4.63,0,0,0,111.44,374Z"/><path class="cls-12" d="M107.43,360.48a9,9,0,0,1,4.33,1.07,30.62,30.62,0,0,1,1.69-3.46,6,6,0,0,0-1-.09,7.72,7.72,0,0,0-5.33,2.48Z"/><path class="cls-2" d="M113.51,370.51a3.65,3.65,0,0,0-2.62-1.18,4.07,4.07,0,0,0-2.84,1.26c-1.76,1.75-1.83,5.37-1.83,6.08a1.19,1.19,0,0,0,1.15,1.17h0c.42,0,4.21,0,6-1.85a3.91,3.91,0,0,0,1.27-2.8A3.81,3.81,0,0,0,113.51,370.51Zm-1.72,3.82a5.05,5.05,0,0,1-2.52,1h-.08a.51.51,0,0,1-.36-.15.48.48,0,0,1-.13-.43,5.1,5.1,0,0,1,1-2.52,1.69,1.69,0,0,1,1.16-.6,1.48,1.48,0,0,1,1,.51,1.53,1.53,0,0,1,.51,1.05A1.67,1.67,0,0,1,111.79,374.33Z"/><path class="cls-2" d="M138.94,346.1a1.15,1.15,0,0,0-1.05-1.05c-.72-.05-1.45-.08-2.15-.08a24.34,24.34,0,0,0-20,10.49.49.49,0,0,1-.4.21.45.45,0,0,1-.16,0,8.89,8.89,0,0,0-2.75-.44,9.46,9.46,0,0,0-4.68,1.28,13.94,13.94,0,0,0-5.59,6.24,1.15,1.15,0,0,0,1.58,1.51,8,8,0,0,1,3.69-1,6,6,0,0,1,4.31,1.69l7.28,7.28.06.07c1.92,1.91,2.22,5.12.72,8a1.15,1.15,0,0,0,1,1.69,1.21,1.21,0,0,0,.49-.11,14,14,0,0,0,6.25-5.59,9.18,9.18,0,0,0,.82-7.47.48.48,0,0,1,.18-.56,27.76,27.76,0,0,0,4.87-4.43A23.19,23.19,0,0,0,138.94,346.1Zm-25,12.24a32.44,32.44,0,0,0-1.67,3.4.5.5,0,0,1-.29.28.48.48,0,0,1-.4,0,8.7,8.7,0,0,0-4.1-1h-.34a.49.49,0,0,1-.46-.3.5.5,0,0,1,.1-.55,8.24,8.24,0,0,1,5.69-2.63,7,7,0,0,1,1.12.1.49.49,0,0,1,.36.28A.5.5,0,0,1,113.89,358.34Zm10,19a.54.54,0,0,1-.36.14.51.51,0,0,1-.2,0,.52.52,0,0,1-.3-.47,8.72,8.72,0,0,0-1-4.46.51.51,0,0,1,0-.4.55.55,0,0,1,.28-.3,31,31,0,0,0,3.42-1.69.54.54,0,0,1,.25-.06.41.41,0,0,1,.21.05.47.47,0,0,1,.28.36A7.7,7.7,0,0,1,123.9,377.29ZM120.46,370l-.18,0a.51.51,0,0,1-.36-.15l-5.82-5.81a.52.52,0,0,1-.12-.53c2.94-7.87,10.21-16.28,21.79-16.28h.47a.5.5,0,0,1,.49.48C137.13,361.92,125.48,368,120.46,370Z"/><path class="cls-2" d="M126.87,355a2.18,2.18,0,0,0,3.73,1.54,2.21,2.21,0,0,0,.64-1.54,2.19,2.19,0,0,0-2.19-2.19,2.19,2.19,0,0,0-2.18,2.19Z"/><path class="cls-2" d="M129.05,355.66a.68.68,0,0,1-.68-.68.68.68,0,0,1,.68-.69.68.68,0,0,1,.69.69.7.7,0,0,1-.2.48A.71.71,0,0,1,129.05,355.66Z"/><path class="cls-4" d="M665.23,459.35l-6.87-6.87a1.1,1.1,0,0,0-1.54,0,5.19,5.19,0,0,0-1.31,4.78l-3.1,3.1c-1.7-.51-6.1-1.4-9.33,1.83a1.08,1.08,0,0,0,0,1.54l4.68,4.68-6.9,6.9a1.09,1.09,0,1,0,1.54,1.54l6.9-6.9,4.68,4.68a1.09,1.09,0,0,0,1.54,0c3.23-3.23,2.34-7.63,1.83-9.33l3.1-3.1a5.19,5.19,0,0,0,4.78-1.31A1.1,1.1,0,0,0,665.23,459.35Zm-4.59.6a1.08,1.08,0,0,0-1.23.22l-4.08,4.08a1.1,1.1,0,0,0-.24,1.18,9.28,9.28,0,0,1,.58,2.81,6.41,6.41,0,0,1-1,4l-4.61-4.61h0L645.46,463c2.91-2,6.65-.48,6.82-.41a1.1,1.1,0,0,0,1.18-.24l4.08-4.08a1.09,1.09,0,0,0,.22-1.23,2.49,2.49,0,0,1,0-2.11l5,5A2.49,2.49,0,0,1,660.64,460Zm-6.44,5.88a4.38,4.38,0,0,1,.35,1.71,1,1,0,0,1-.95.93h0a1,1,0,0,1-.92-1,2.46,2.46,0,0,0-.19-.88,1,1,0,0,1,.49-1.26A1,1,0,0,1,654.2,465.83Z"/><path class="cls-4" d="M132,565.21a5.24,5.24,0,1,1,5.24-5.24A5.24,5.24,0,0,1,132,565.21Zm0-8.55a3.32,3.32,0,1,0,3.32,3.31A3.31,3.31,0,0,0,132,556.66Zm0,15.81h-.14a16.82,16.82,0,0,1-1.81-.11,1,1,0,0,1-.83-.82l-.27-1.95a10.08,10.08,0,0,1-1.73-.73L125.73,570a1,1,0,0,1-1.17,0,15.68,15.68,0,0,1-1.35-1.2l-.11-.11a17.24,17.24,0,0,1-1.2-1.35,1,1,0,0,1,0-1.17l1.19-1.57a10.27,10.27,0,0,1-.7-1.73l-1.91-.27a1,1,0,0,1-.82-.83,17.32,17.32,0,0,1-.11-1.81v-.15a17.32,17.32,0,0,1,.11-1.81,1,1,0,0,1,.83-.83l2-.27a9.25,9.25,0,0,1,.73-1.72L122,553.65a1,1,0,0,1,0-1.17s.54-.68,1.21-1.35l.1-.11a16.73,16.73,0,0,1,1.36-1.2,1,1,0,0,1,1.17,0l1.57,1.19a9.85,9.85,0,0,1,1.72-.7l.28-1.91a1,1,0,0,1,.83-.82,14.21,14.21,0,0,1,1.8-.11h.15a14.28,14.28,0,0,1,1.81.11,1,1,0,0,1,.83.82l.27,2a10,10,0,0,1,1.72.73l1.54-1.16a1,1,0,0,1,1.17,0,13.91,13.91,0,0,1,1.35,1.2l.11.1a14.73,14.73,0,0,1,1.2,1.36,1,1,0,0,1,0,1.17L141,555.33a9.68,9.68,0,0,1,.71,1.73l1.91.27a.94.94,0,0,1,.81.83,14.28,14.28,0,0,1,.11,1.81v.15a14.21,14.21,0,0,1-.11,1.8,1,1,0,0,1-.82.84l-1.94.26a10.45,10.45,0,0,1-.73,1.72l1.15,1.55a1,1,0,0,1,0,1.16,14.73,14.73,0,0,1-1.2,1.36l-.1.1a14.73,14.73,0,0,1-1.36,1.2,1,1,0,0,1-1.17,0l-1.57-1.19a10.44,10.44,0,0,1-1.73.7l-.27,1.91a1,1,0,0,1-.83.82A16.82,16.82,0,0,1,132,572.47Zm-1-2,.84,0H132l.85,0,.25-1.8a1,1,0,0,1,.74-.8,8.38,8.38,0,0,0,2.39-1,.87.87,0,0,1,.72-.11.89.89,0,0,1,.39.19l1.43,1.08c.18-.16.4-.36.61-.57l.1-.1c.22-.22.41-.43.58-.62L139,565.39a1,1,0,0,1,0-1.09,8.15,8.15,0,0,0,1-2.31,1,1,0,0,1,.81-.79l1.82-.25c0-.24,0-.53,0-.83V560c0-.3,0-.6,0-.84l-1.78-.26a1,1,0,0,1-.81-.73,8.12,8.12,0,0,0-.95-2.37,1.24,1.24,0,0,1-.1-.2,1,1,0,0,1,.14-.9l1.11-1.46c-.16-.19-.36-.4-.57-.62l-.11-.1c-.21-.22-.43-.41-.61-.58L137.46,553a1,1,0,0,1-1.14,0,8.16,8.16,0,0,0-2.32-1,1,1,0,0,1-.72-.8l-.25-1.82c-.25,0-.54,0-.84,0H132c-.3,0-.59,0-.84,0l-.25,1.79a1,1,0,0,1-.81.82,7.94,7.94,0,0,0-2.32,1,1,1,0,0,1-.74.11,1.07,1.07,0,0,1-.38-.2l-1.42-1.08c-.18.17-.4.36-.61.57l-.1.11c-.22.21-.42.43-.58.61l1.09,1.45a1,1,0,0,1,0,1.07.41.41,0,0,1,0,.09,8,8,0,0,0-1,2.3,1,1,0,0,1-.8.72l-1.81.25c0,.25,0,.54,0,.84V560c0,.3,0,.59,0,.84l1.79.25a1,1,0,0,1,.81.82v0a7.9,7.9,0,0,0,.94,2.27.94.94,0,0,1-.09,1.12l-1.07,1.42c.16.19.36.4.57.61l.11.11c.21.21.42.41.61.57l1.45-1.09a1,1,0,0,1,1.19,0,8.23,8.23,0,0,0,2.26.93,1,1,0,0,1,.73.81Z"/><path class="cls-4" d="M132,478.21a5.24,5.24,0,1,1,5.24-5.24A5.24,5.24,0,0,1,132,478.21Zm0-8.55a3.32,3.32,0,1,0,3.32,3.31A3.31,3.31,0,0,0,132,469.66Zm0,15.81h-.14a16.82,16.82,0,0,1-1.81-.11,1,1,0,0,1-.83-.82l-.27-2a10.08,10.08,0,0,1-1.73-.73L125.73,483a1,1,0,0,1-1.17,0,15.68,15.68,0,0,1-1.35-1.2l-.11-.11a17.24,17.24,0,0,1-1.2-1.35,1,1,0,0,1,0-1.17l1.19-1.57a10.27,10.27,0,0,1-.7-1.73l-1.91-.27a1,1,0,0,1-.82-.83,17.32,17.32,0,0,1-.11-1.81v-.15a17.32,17.32,0,0,1,.11-1.81,1,1,0,0,1,.83-.83l2-.27a9.25,9.25,0,0,1,.73-1.72L122,466.65a1,1,0,0,1,0-1.17s.54-.68,1.21-1.35l.1-.11a16.73,16.73,0,0,1,1.36-1.2,1,1,0,0,1,1.17,0l1.57,1.19a9.85,9.85,0,0,1,1.72-.7l.28-1.91a1,1,0,0,1,.83-.82,14.21,14.21,0,0,1,1.8-.11h.15a14.28,14.28,0,0,1,1.81.11,1,1,0,0,1,.83.82l.27,2a10,10,0,0,1,1.72.73l1.54-1.16a1,1,0,0,1,1.17,0,13.91,13.91,0,0,1,1.35,1.2l.11.1a14.73,14.73,0,0,1,1.2,1.36,1,1,0,0,1,0,1.17L141,468.33a9.68,9.68,0,0,1,.71,1.73l1.91.27a.94.94,0,0,1,.81.83,14.28,14.28,0,0,1,.11,1.81v.15a14.21,14.21,0,0,1-.11,1.8,1,1,0,0,1-.82.84l-1.94.26a10.45,10.45,0,0,1-.73,1.72l1.15,1.55a1,1,0,0,1,0,1.16,14.73,14.73,0,0,1-1.2,1.36l-.1.1a14.73,14.73,0,0,1-1.36,1.2,1,1,0,0,1-1.17,0l-1.57-1.19a10.44,10.44,0,0,1-1.73.7l-.27,1.91a1,1,0,0,1-.83.82A16.82,16.82,0,0,1,132,485.47Zm-1-2,.84,0H132l.85,0,.25-1.8a1,1,0,0,1,.74-.8,8.38,8.38,0,0,0,2.39-1,.87.87,0,0,1,.72-.11.89.89,0,0,1,.39.19l1.43,1.08c.18-.16.4-.36.61-.57l.1-.1c.22-.22.41-.43.58-.62L139,478.39a1,1,0,0,1,0-1.09,8.15,8.15,0,0,0,1-2.31,1,1,0,0,1,.81-.79l1.82-.25c0-.24,0-.53,0-.83V473c0-.3,0-.6,0-.84l-1.78-.26a1,1,0,0,1-.81-.73,8.12,8.12,0,0,0-.95-2.37,1.24,1.24,0,0,1-.1-.2,1,1,0,0,1,.14-.9l1.11-1.46c-.16-.19-.36-.4-.57-.62l-.11-.1c-.21-.22-.43-.41-.61-.58L137.46,466a1,1,0,0,1-1.14,0,8.16,8.16,0,0,0-2.32-1,1,1,0,0,1-.72-.8l-.25-1.82c-.25,0-.54,0-.84,0H132c-.3,0-.59,0-.84,0l-.25,1.79a1,1,0,0,1-.81.82,7.94,7.94,0,0,0-2.32,1,1,1,0,0,1-.74.11,1.07,1.07,0,0,1-.38-.2l-1.42-1.08c-.18.17-.4.36-.61.57l-.1.11c-.22.21-.42.43-.58.61l1.09,1.45a1,1,0,0,1,0,1.07.41.41,0,0,1,0,.09,8,8,0,0,0-1,2.3,1,1,0,0,1-.8.72l-1.81.25c0,.25,0,.54,0,.84V473c0,.3,0,.59,0,.84l1.79.25a1,1,0,0,1,.81.82v0a7.9,7.9,0,0,0,.94,2.27.94.94,0,0,1-.09,1.12l-1.07,1.42c.16.19.36.4.57.61l.11.11c.21.21.42.41.61.57l1.45-1.09a1,1,0,0,1,1.19,0,8.23,8.23,0,0,0,2.26.93,1,1,0,0,1,.73.81Z"/><path class="cls-4" d="M253,565.21a5.24,5.24,0,1,1,5.24-5.24A5.24,5.24,0,0,1,253,565.21Zm0-8.55a3.32,3.32,0,1,0,3.32,3.31A3.31,3.31,0,0,0,253,556.66Zm0,15.81h-.14a16.82,16.82,0,0,1-1.81-.11,1,1,0,0,1-.83-.82l-.27-1.95a10.08,10.08,0,0,1-1.73-.73L246.73,570a1,1,0,0,1-1.17,0,15.68,15.68,0,0,1-1.35-1.2l-.11-.11a17.24,17.24,0,0,1-1.2-1.35,1,1,0,0,1,0-1.17l1.19-1.57a10.27,10.27,0,0,1-.7-1.73l-1.91-.27a1,1,0,0,1-.82-.83,17.32,17.32,0,0,1-.11-1.81v-.15a17.32,17.32,0,0,1,.11-1.81,1,1,0,0,1,.83-.83l2-.27a9.25,9.25,0,0,1,.73-1.72L243,553.65a1,1,0,0,1,0-1.17s.54-.68,1.21-1.35l.1-.11a16.73,16.73,0,0,1,1.36-1.2,1,1,0,0,1,1.17,0l1.57,1.19a9.85,9.85,0,0,1,1.72-.7l.28-1.91a1,1,0,0,1,.83-.82,14.21,14.21,0,0,1,1.8-.11h.15a14.28,14.28,0,0,1,1.81.11,1,1,0,0,1,.83.82l.27,2a10,10,0,0,1,1.72.73l1.54-1.16a1,1,0,0,1,1.17,0,13.91,13.91,0,0,1,1.35,1.2l.11.1a14.73,14.73,0,0,1,1.2,1.36,1,1,0,0,1,0,1.17L262,555.33a9.68,9.68,0,0,1,.71,1.73l1.91.27a.94.94,0,0,1,.81.83,14.28,14.28,0,0,1,.11,1.81v.15a14.21,14.21,0,0,1-.11,1.8,1,1,0,0,1-.82.84l-1.94.26a10.45,10.45,0,0,1-.73,1.72l1.15,1.55a1,1,0,0,1,0,1.16,14.73,14.73,0,0,1-1.2,1.36l-.1.1a14.73,14.73,0,0,1-1.36,1.2,1,1,0,0,1-1.17,0l-1.57-1.19a10.44,10.44,0,0,1-1.73.7l-.27,1.91a1,1,0,0,1-.83.82A16.82,16.82,0,0,1,253,572.47Zm-1-2,.84,0H253l.85,0,.25-1.8a1,1,0,0,1,.74-.8,8.38,8.38,0,0,0,2.39-1,.87.87,0,0,1,.72-.11.89.89,0,0,1,.39.19l1.43,1.08c.18-.16.4-.36.61-.57l.1-.1c.22-.22.41-.43.58-.62L260,565.39a1,1,0,0,1,0-1.09,8.15,8.15,0,0,0,1-2.31,1,1,0,0,1,.81-.79l1.82-.25c0-.24,0-.53,0-.83V560c0-.3,0-.6,0-.84l-1.78-.26a1,1,0,0,1-.81-.73,8.12,8.12,0,0,0-.95-2.37,1.24,1.24,0,0,1-.1-.2,1,1,0,0,1,.14-.9l1.11-1.46c-.16-.19-.36-.4-.57-.62l-.11-.1c-.21-.22-.43-.41-.61-.58L258.46,553a1,1,0,0,1-1.14,0,8.16,8.16,0,0,0-2.32-1,1,1,0,0,1-.72-.8l-.25-1.82c-.25,0-.54,0-.84,0H253c-.3,0-.59,0-.84,0l-.25,1.79a1,1,0,0,1-.81.82,7.94,7.94,0,0,0-2.32,1,1,1,0,0,1-.74.11,1.07,1.07,0,0,1-.38-.2l-1.42-1.08c-.18.17-.4.36-.61.57l-.1.11c-.22.21-.42.43-.58.61l1.09,1.45a1,1,0,0,1,0,1.07.41.41,0,0,1,0,.09,8,8,0,0,0-1,2.3,1,1,0,0,1-.8.72l-1.81.25c0,.25,0,.54,0,.84V560c0,.3,0,.59,0,.84l1.79.25a1,1,0,0,1,.81.82v0a7.9,7.9,0,0,0,.94,2.27.94.94,0,0,1-.09,1.12l-1.07,1.42c.16.19.36.4.57.61l.11.11c.21.21.42.41.61.57l1.45-1.09a1,1,0,0,1,1.19,0,8.23,8.23,0,0,0,2.26.93,1,1,0,0,1,.73.81Z"/><path class="cls-4" d="M253,478.21a5.24,5.24,0,1,1,5.24-5.24A5.24,5.24,0,0,1,253,478.21Zm0-8.55a3.32,3.32,0,1,0,3.32,3.31A3.31,3.31,0,0,0,253,469.66Zm0,15.81h-.14a16.82,16.82,0,0,1-1.81-.11,1,1,0,0,1-.83-.82l-.27-2a10.08,10.08,0,0,1-1.73-.73L246.73,483a1,1,0,0,1-1.17,0,15.68,15.68,0,0,1-1.35-1.2l-.11-.11a17.24,17.24,0,0,1-1.2-1.35,1,1,0,0,1,0-1.17l1.19-1.57a10.27,10.27,0,0,1-.7-1.73l-1.91-.27a1,1,0,0,1-.82-.83,17.32,17.32,0,0,1-.11-1.81v-.15a17.32,17.32,0,0,1,.11-1.81,1,1,0,0,1,.83-.83l2-.27a9.25,9.25,0,0,1,.73-1.72L243,466.65a1,1,0,0,1,0-1.17s.54-.68,1.21-1.35l.1-.11a16.73,16.73,0,0,1,1.36-1.2,1,1,0,0,1,1.17,0l1.57,1.19a9.85,9.85,0,0,1,1.72-.7l.28-1.91a1,1,0,0,1,.83-.82,14.21,14.21,0,0,1,1.8-.11h.15a14.28,14.28,0,0,1,1.81.11,1,1,0,0,1,.83.82l.27,2a10,10,0,0,1,1.72.73l1.54-1.16a1,1,0,0,1,1.17,0,13.91,13.91,0,0,1,1.35,1.2l.11.1a14.73,14.73,0,0,1,1.2,1.36,1,1,0,0,1,0,1.17L262,468.33a9.68,9.68,0,0,1,.71,1.73l1.91.27a.94.94,0,0,1,.81.83,14.28,14.28,0,0,1,.11,1.81v.15a14.21,14.21,0,0,1-.11,1.8,1,1,0,0,1-.82.84l-1.94.26a10.45,10.45,0,0,1-.73,1.72l1.15,1.55a1,1,0,0,1,0,1.16,14.73,14.73,0,0,1-1.2,1.36l-.1.1a14.73,14.73,0,0,1-1.36,1.2,1,1,0,0,1-1.17,0l-1.57-1.19a10.44,10.44,0,0,1-1.73.7l-.27,1.91a1,1,0,0,1-.83.82A16.82,16.82,0,0,1,253,485.47Zm-1-2,.84,0H253l.85,0,.25-1.8a1,1,0,0,1,.74-.8,8.38,8.38,0,0,0,2.39-1,.87.87,0,0,1,.72-.11.89.89,0,0,1,.39.19l1.43,1.08c.18-.16.4-.36.61-.57l.1-.1c.22-.22.41-.43.58-.62L260,478.39a1,1,0,0,1,0-1.09,8.15,8.15,0,0,0,1-2.31,1,1,0,0,1,.81-.79l1.82-.25c0-.24,0-.53,0-.83V473c0-.3,0-.6,0-.84l-1.78-.26a1,1,0,0,1-.81-.73,8.12,8.12,0,0,0-.95-2.37,1.24,1.24,0,0,1-.1-.2,1,1,0,0,1,.14-.9l1.11-1.46c-.16-.19-.36-.4-.57-.62l-.11-.1c-.21-.22-.43-.41-.61-.58L258.46,466a1,1,0,0,1-1.14,0,8.16,8.16,0,0,0-2.32-1,1,1,0,0,1-.72-.8l-.25-1.82c-.25,0-.54,0-.84,0H253c-.3,0-.59,0-.84,0l-.25,1.79a1,1,0,0,1-.81.82,7.94,7.94,0,0,0-2.32,1,1,1,0,0,1-.74.11,1.07,1.07,0,0,1-.38-.2l-1.42-1.08c-.18.17-.4.36-.61.57l-.1.11c-.22.21-.42.43-.58.61l1.09,1.45a1,1,0,0,1,0,1.07.41.41,0,0,1,0,.09,8,8,0,0,0-1,2.3,1,1,0,0,1-.8.72l-1.81.25c0,.25,0,.54,0,.84V473c0,.3,0,.59,0,.84l1.79.25a1,1,0,0,1,.81.82v0a7.9,7.9,0,0,0,.94,2.27.94.94,0,0,1-.09,1.12l-1.07,1.42c.16.19.36.4.57.61l.11.11c.21.21.42.41.61.57l1.45-1.09a1,1,0,0,1,1.19,0,8.23,8.23,0,0,0,2.26.93,1,1,0,0,1,.73.81Z"/><path class="cls-4" d="M350,478.21a5.24,5.24,0,1,1,5.24-5.24A5.24,5.24,0,0,1,350,478.21Zm0-8.55a3.32,3.32,0,1,0,3.32,3.31A3.31,3.31,0,0,0,350,469.66Zm0,15.81h-.14a16.82,16.82,0,0,1-1.81-.11,1,1,0,0,1-.83-.82l-.27-2a10.08,10.08,0,0,1-1.73-.73L343.73,483a1,1,0,0,1-1.17,0,15.68,15.68,0,0,1-1.35-1.2l-.11-.11a17.24,17.24,0,0,1-1.2-1.35,1,1,0,0,1,0-1.17l1.19-1.57a10.27,10.27,0,0,1-.7-1.73l-1.91-.27a1,1,0,0,1-.82-.83,17.32,17.32,0,0,1-.11-1.81v-.15a17.32,17.32,0,0,1,.11-1.81,1,1,0,0,1,.83-.83l1.95-.27a9.25,9.25,0,0,1,.73-1.72L340,466.65a1,1,0,0,1,0-1.17s.54-.68,1.21-1.35l.1-.11a16.73,16.73,0,0,1,1.36-1.2,1,1,0,0,1,1.17,0l1.57,1.19a9.85,9.85,0,0,1,1.72-.7l.28-1.91a1,1,0,0,1,.83-.82,14.21,14.21,0,0,1,1.8-.11h.15a14.28,14.28,0,0,1,1.81.11,1,1,0,0,1,.83.82l.27,2a10,10,0,0,1,1.72.73l1.54-1.16a1,1,0,0,1,1.17,0,13.91,13.91,0,0,1,1.35,1.2l.11.1a14.73,14.73,0,0,1,1.2,1.36,1,1,0,0,1,0,1.17L359,468.33a9.68,9.68,0,0,1,.71,1.73l1.91.27a.94.94,0,0,1,.81.83,14.28,14.28,0,0,1,.11,1.81v.15a14.21,14.21,0,0,1-.11,1.8,1,1,0,0,1-.82.84l-1.94.26a10.45,10.45,0,0,1-.73,1.72l1.15,1.55a1,1,0,0,1,0,1.16,14.73,14.73,0,0,1-1.2,1.36l-.1.1a14.73,14.73,0,0,1-1.36,1.2,1,1,0,0,1-1.17,0l-1.57-1.19a10.44,10.44,0,0,1-1.73.7l-.27,1.91a1,1,0,0,1-.83.82A16.82,16.82,0,0,1,350,485.47Zm-1-2,.84,0H350l.85,0,.25-1.8a1,1,0,0,1,.74-.8,8.38,8.38,0,0,0,2.39-1,.87.87,0,0,1,.72-.11.89.89,0,0,1,.39.19l1.43,1.08c.18-.16.4-.36.61-.57l.1-.1c.22-.22.41-.43.58-.62L357,478.39a1,1,0,0,1,0-1.09,8.15,8.15,0,0,0,1-2.31,1,1,0,0,1,.81-.79l1.82-.25c0-.24,0-.53,0-.83V473c0-.3,0-.6,0-.84l-1.78-.26a1,1,0,0,1-.81-.73,8.12,8.12,0,0,0-.95-2.37,1.24,1.24,0,0,1-.1-.2,1,1,0,0,1,.14-.9l1.11-1.46c-.16-.19-.36-.4-.57-.62l-.11-.1c-.21-.22-.43-.41-.61-.58L355.46,466a1,1,0,0,1-1.14,0,8.16,8.16,0,0,0-2.32-1,1,1,0,0,1-.72-.8l-.25-1.82c-.25,0-.54,0-.84,0H350c-.3,0-.59,0-.84,0l-.25,1.79a1,1,0,0,1-.81.82,7.94,7.94,0,0,0-2.32,1,1,1,0,0,1-.74.11,1.07,1.07,0,0,1-.38-.2l-1.42-1.08c-.18.17-.4.36-.61.57l-.1.11c-.22.21-.42.43-.58.61l1.09,1.45a1,1,0,0,1,.05,1.07.41.41,0,0,1-.05.09,8,8,0,0,0-1,2.3,1,1,0,0,1-.8.72l-1.81.25c0,.25,0,.54,0,.84V473c0,.3,0,.59,0,.84l1.79.25a1,1,0,0,1,.81.82v0a7.9,7.9,0,0,0,.94,2.27.94.94,0,0,1-.09,1.12l-1.07,1.42c.16.19.36.4.57.61l.11.11c.21.21.42.41.61.57l1.45-1.09a1,1,0,0,1,1.19,0,8.23,8.23,0,0,0,2.26.93,1,1,0,0,1,.73.81Z"/><path class="cls-4" d="M513,478.21a5.24,5.24,0,1,1,5.24-5.24A5.24,5.24,0,0,1,513,478.21Zm0-8.55a3.32,3.32,0,1,0,3.32,3.31A3.31,3.31,0,0,0,513,469.66Zm0,15.81h-.14a16.82,16.82,0,0,1-1.81-.11,1,1,0,0,1-.83-.82l-.27-2a10.08,10.08,0,0,1-1.73-.73L506.73,483a1,1,0,0,1-1.17,0,15.68,15.68,0,0,1-1.35-1.2l-.11-.11a17.24,17.24,0,0,1-1.2-1.35,1,1,0,0,1,0-1.17l1.19-1.57a10.27,10.27,0,0,1-.7-1.73l-1.91-.27a1,1,0,0,1-.82-.83,17.32,17.32,0,0,1-.11-1.81v-.15a17.32,17.32,0,0,1,.11-1.81,1,1,0,0,1,.83-.83l1.95-.27a9.25,9.25,0,0,1,.73-1.72L503,466.65a1,1,0,0,1,0-1.17s.54-.68,1.21-1.35l.1-.11a16.73,16.73,0,0,1,1.36-1.2,1,1,0,0,1,1.17,0l1.57,1.19a9.85,9.85,0,0,1,1.72-.7l.28-1.91a1,1,0,0,1,.83-.82,14.21,14.21,0,0,1,1.8-.11h.15a14.28,14.28,0,0,1,1.81.11,1,1,0,0,1,.83.82l.27,2a10,10,0,0,1,1.72.73l1.54-1.16a1,1,0,0,1,1.17,0,13.91,13.91,0,0,1,1.35,1.2l.11.1a14.73,14.73,0,0,1,1.2,1.36,1,1,0,0,1,0,1.17L522,468.33a9.68,9.68,0,0,1,.71,1.73l1.91.27a.94.94,0,0,1,.81.83,14.28,14.28,0,0,1,.11,1.81v.15a14.21,14.21,0,0,1-.11,1.8,1,1,0,0,1-.82.84l-1.94.26a10.45,10.45,0,0,1-.73,1.72l1.15,1.55a1,1,0,0,1,0,1.16,14.73,14.73,0,0,1-1.2,1.36l-.1.1a14.73,14.73,0,0,1-1.36,1.2,1,1,0,0,1-1.17,0l-1.57-1.19a10.44,10.44,0,0,1-1.73.7l-.27,1.91a1,1,0,0,1-.83.82A16.82,16.82,0,0,1,513,485.47Zm-1-2,.84,0H513l.85,0,.25-1.8a1,1,0,0,1,.74-.8,8.38,8.38,0,0,0,2.39-1,.87.87,0,0,1,.72-.11.89.89,0,0,1,.39.19l1.43,1.08c.18-.16.4-.36.61-.57l.1-.1c.22-.22.41-.43.58-.62L520,478.39a1,1,0,0,1,0-1.09,8.15,8.15,0,0,0,1-2.31,1,1,0,0,1,.81-.79l1.82-.25c0-.24,0-.53,0-.83V473c0-.3,0-.6,0-.84l-1.78-.26a1,1,0,0,1-.81-.73,8.12,8.12,0,0,0-1-2.37,1.24,1.24,0,0,1-.1-.2,1,1,0,0,1,.14-.9l1.11-1.46c-.16-.19-.36-.4-.57-.62l-.11-.1c-.21-.22-.43-.41-.61-.58L518.46,466a1,1,0,0,1-1.14,0,8.16,8.16,0,0,0-2.32-1,1,1,0,0,1-.72-.8l-.25-1.82c-.25,0-.54,0-.84,0H513c-.3,0-.59,0-.84,0l-.25,1.79a1,1,0,0,1-.81.82,7.94,7.94,0,0,0-2.32,1,1,1,0,0,1-.74.11,1.07,1.07,0,0,1-.38-.2l-1.42-1.08c-.18.17-.4.36-.61.57l-.1.11c-.22.21-.42.43-.58.61l1.09,1.45a1,1,0,0,1,.05,1.07.41.41,0,0,1-.05.09,8,8,0,0,0-1,2.3,1,1,0,0,1-.8.72l-1.81.25c0,.25,0,.54,0,.84V473c0,.3,0,.59,0,.84l1.79.25a1,1,0,0,1,.81.82v0a7.9,7.9,0,0,0,.94,2.27.94.94,0,0,1-.09,1.12l-1.07,1.42c.16.19.36.4.57.61l.11.11c.21.21.42.41.61.57l1.45-1.09a1,1,0,0,1,1.19,0,8.23,8.23,0,0,0,2.26.93,1,1,0,0,1,.73.81Z"/><path class="cls-4" d="M299,369.21a5.24,5.24,0,1,1,5.24-5.24A5.24,5.24,0,0,1,299,369.21Zm0-8.55a3.32,3.32,0,1,0,3.32,3.31A3.31,3.31,0,0,0,299,360.66Zm0,15.81h-.14a16.82,16.82,0,0,1-1.81-.11,1,1,0,0,1-.83-.82l-.27-2a10.08,10.08,0,0,1-1.73-.73L292.73,374a1,1,0,0,1-1.17,0,15.68,15.68,0,0,1-1.35-1.2l-.11-.11a17.24,17.24,0,0,1-1.2-1.35,1,1,0,0,1,0-1.17l1.19-1.57a10.27,10.27,0,0,1-.7-1.73l-1.91-.27a1,1,0,0,1-.82-.83,17.32,17.32,0,0,1-.11-1.81v-.15a17.32,17.32,0,0,1,.11-1.81,1,1,0,0,1,.83-.83l1.95-.27a9.25,9.25,0,0,1,.73-1.72L289,357.65a1,1,0,0,1,0-1.17s.54-.68,1.21-1.35l.1-.11a16.73,16.73,0,0,1,1.36-1.2,1,1,0,0,1,1.17,0l1.57,1.19a9.85,9.85,0,0,1,1.72-.7l.28-1.91a1,1,0,0,1,.83-.82,14.21,14.21,0,0,1,1.8-.11h.15a14.28,14.28,0,0,1,1.81.11,1,1,0,0,1,.83.82l.27,2a10,10,0,0,1,1.72.73l1.54-1.16a1,1,0,0,1,1.17,0,13.91,13.91,0,0,1,1.35,1.2l.11.1a14.73,14.73,0,0,1,1.2,1.36,1,1,0,0,1,0,1.17L308,359.33a9.68,9.68,0,0,1,.71,1.73l1.91.27a.94.94,0,0,1,.81.83,14.28,14.28,0,0,1,.11,1.81v.15a14.21,14.21,0,0,1-.11,1.8,1,1,0,0,1-.82.84l-1.94.26a10.45,10.45,0,0,1-.73,1.72l1.15,1.55a1,1,0,0,1,0,1.16,14.73,14.73,0,0,1-1.2,1.36l-.1.1a14.73,14.73,0,0,1-1.36,1.2,1,1,0,0,1-1.17,0l-1.57-1.19a10.44,10.44,0,0,1-1.73.7l-.27,1.91a1,1,0,0,1-.83.82A16.82,16.82,0,0,1,299,376.47Zm-1-2,.84,0H299l.85,0,.25-1.8a1,1,0,0,1,.74-.8,8.38,8.38,0,0,0,2.39-1,.87.87,0,0,1,.72-.11.89.89,0,0,1,.39.19l1.43,1.08c.18-.16.4-.36.61-.57l.1-.1c.22-.22.41-.43.58-.62L306,369.39a1,1,0,0,1,0-1.09,8.15,8.15,0,0,0,1-2.31,1,1,0,0,1,.81-.79l1.82-.25c0-.24,0-.53,0-.83V364c0-.3,0-.6,0-.84l-1.78-.26a1,1,0,0,1-.81-.73,8.12,8.12,0,0,0-.95-2.37,1.24,1.24,0,0,1-.1-.2,1,1,0,0,1,.14-.9l1.11-1.46c-.16-.19-.36-.4-.57-.62l-.11-.1c-.21-.22-.43-.41-.61-.58L304.46,357a1,1,0,0,1-1.14,0,8.16,8.16,0,0,0-2.32-1,1,1,0,0,1-.72-.8l-.25-1.82c-.25,0-.54,0-.84,0H299c-.3,0-.59,0-.84,0l-.25,1.79a1,1,0,0,1-.81.82,7.94,7.94,0,0,0-2.32,1,1,1,0,0,1-.74.11,1.07,1.07,0,0,1-.38-.2l-1.42-1.08c-.18.17-.4.36-.61.57l-.1.11c-.22.21-.42.43-.58.61l1.09,1.45a1,1,0,0,1,.05,1.07.41.41,0,0,1-.05.09,8,8,0,0,0-1,2.3,1,1,0,0,1-.8.72l-1.81.25c0,.25,0,.54,0,.84V364c0,.3,0,.59,0,.84l1.79.25a1,1,0,0,1,.81.82v0a7.9,7.9,0,0,0,.94,2.27.94.94,0,0,1-.09,1.12l-1.07,1.42c.16.19.36.4.57.61l.11.11c.21.21.42.41.61.57l1.45-1.09a1,1,0,0,1,1.19,0,8.23,8.23,0,0,0,2.26.93,1,1,0,0,1,.73.81Z"/><path class="cls-4" d="M396,369.21a5.24,5.24,0,1,1,5.24-5.24A5.24,5.24,0,0,1,396,369.21Zm0-8.55a3.32,3.32,0,1,0,3.32,3.31A3.31,3.31,0,0,0,396,360.66Zm0,15.81h-.14a16.82,16.82,0,0,1-1.81-.11,1,1,0,0,1-.83-.82l-.27-2a10.08,10.08,0,0,1-1.73-.73L389.73,374a1,1,0,0,1-1.17,0,15.68,15.68,0,0,1-1.35-1.2l-.11-.11a17.24,17.24,0,0,1-1.2-1.35,1,1,0,0,1,0-1.17l1.19-1.57a10.27,10.27,0,0,1-.7-1.73l-1.91-.27a1,1,0,0,1-.82-.83,17.32,17.32,0,0,1-.11-1.81v-.15a17.32,17.32,0,0,1,.11-1.81,1,1,0,0,1,.83-.83l1.95-.27a9.25,9.25,0,0,1,.73-1.72L386,357.65a1,1,0,0,1,0-1.17s.54-.68,1.21-1.35l.1-.11a16.73,16.73,0,0,1,1.36-1.2,1,1,0,0,1,1.17,0l1.57,1.19a9.85,9.85,0,0,1,1.72-.7l.28-1.91a1,1,0,0,1,.83-.82,14.21,14.21,0,0,1,1.8-.11h.15a14.28,14.28,0,0,1,1.81.11,1,1,0,0,1,.83.82l.27,2a10,10,0,0,1,1.72.73l1.54-1.16a1,1,0,0,1,1.17,0,13.91,13.91,0,0,1,1.35,1.2l.11.1a14.73,14.73,0,0,1,1.2,1.36,1,1,0,0,1,0,1.17L405,359.33a9.68,9.68,0,0,1,.71,1.73l1.91.27a.94.94,0,0,1,.81.83,14.28,14.28,0,0,1,.11,1.81v.15a14.21,14.21,0,0,1-.11,1.8,1,1,0,0,1-.82.84l-1.94.26a10.45,10.45,0,0,1-.73,1.72l1.15,1.55a1,1,0,0,1,0,1.16,14.73,14.73,0,0,1-1.2,1.36l-.1.1a14.73,14.73,0,0,1-1.36,1.2,1,1,0,0,1-1.17,0l-1.57-1.19a10.44,10.44,0,0,1-1.73.7l-.27,1.91a1,1,0,0,1-.83.82A16.82,16.82,0,0,1,396,376.47Zm-1-2,.84,0H396l.85,0,.25-1.8a1,1,0,0,1,.74-.8,8.38,8.38,0,0,0,2.39-1,.87.87,0,0,1,.72-.11.89.89,0,0,1,.39.19l1.43,1.08c.18-.16.4-.36.61-.57l.1-.1c.22-.22.41-.43.58-.62L403,369.39a1,1,0,0,1,0-1.09,8.15,8.15,0,0,0,1-2.31,1,1,0,0,1,.81-.79l1.82-.25c0-.24,0-.53,0-.83V364c0-.3,0-.6,0-.84l-1.78-.26a1,1,0,0,1-.81-.73,8.12,8.12,0,0,0-.95-2.37,1.24,1.24,0,0,1-.1-.2,1,1,0,0,1,.14-.9l1.11-1.46c-.16-.19-.36-.4-.57-.62l-.11-.1c-.21-.22-.43-.41-.61-.58L401.46,357a1,1,0,0,1-1.14,0,8.16,8.16,0,0,0-2.32-1,1,1,0,0,1-.72-.8l-.25-1.82c-.25,0-.54,0-.84,0H396c-.3,0-.59,0-.84,0l-.25,1.79a1,1,0,0,1-.81.82,7.94,7.94,0,0,0-2.32,1,1,1,0,0,1-.74.11,1.07,1.07,0,0,1-.38-.2l-1.42-1.08c-.18.17-.4.36-.61.57l-.1.11c-.22.21-.42.43-.58.61l1.09,1.45a1,1,0,0,1,.05,1.07.41.41,0,0,1-.05.09,8,8,0,0,0-1,2.3,1,1,0,0,1-.8.72l-1.81.25c0,.25,0,.54,0,.84V364c0,.3,0,.59,0,.84l1.79.25a1,1,0,0,1,.81.82v0a7.9,7.9,0,0,0,.94,2.27.94.94,0,0,1-.09,1.12l-1.07,1.42c.16.19.36.4.57.61l.11.11c.21.21.42.41.61.57l1.45-1.09a1,1,0,0,1,1.19,0,8.23,8.23,0,0,0,2.26.93,1,1,0,0,1,.73.81Z"/><path class="cls-4" d="M396,284.21a5.24,5.24,0,1,1,5.24-5.24A5.24,5.24,0,0,1,396,284.21Zm0-8.55a3.32,3.32,0,1,0,3.32,3.31A3.31,3.31,0,0,0,396,275.66Zm0,15.81h-.14a16.82,16.82,0,0,1-1.81-.11,1,1,0,0,1-.83-.82l-.27-2a10.08,10.08,0,0,1-1.73-.73L389.73,289a1,1,0,0,1-1.17,0,15.68,15.68,0,0,1-1.35-1.2l-.11-.11a17.24,17.24,0,0,1-1.2-1.35,1,1,0,0,1,0-1.17l1.19-1.57a10.27,10.27,0,0,1-.7-1.73l-1.91-.27a1,1,0,0,1-.82-.83,17.32,17.32,0,0,1-.11-1.81v-.15a17.32,17.32,0,0,1,.11-1.81,1,1,0,0,1,.83-.83l1.95-.27a9.25,9.25,0,0,1,.73-1.72L386,272.65a1,1,0,0,1,0-1.17s.54-.68,1.21-1.35l.1-.11a16.73,16.73,0,0,1,1.36-1.2,1,1,0,0,1,1.17,0l1.57,1.19a9.85,9.85,0,0,1,1.72-.7l.28-1.91a1,1,0,0,1,.83-.82,14.21,14.21,0,0,1,1.8-.11h.15a14.28,14.28,0,0,1,1.81.11,1,1,0,0,1,.83.82l.27,2a10,10,0,0,1,1.72.73l1.54-1.16a1,1,0,0,1,1.17,0,13.91,13.91,0,0,1,1.35,1.2l.11.1a14.73,14.73,0,0,1,1.2,1.36,1,1,0,0,1,0,1.17L405,274.33a9.68,9.68,0,0,1,.71,1.73l1.91.27a.94.94,0,0,1,.81.83,14.28,14.28,0,0,1,.11,1.81v.15a14.21,14.21,0,0,1-.11,1.8,1,1,0,0,1-.82.84l-1.94.26a10.45,10.45,0,0,1-.73,1.72l1.15,1.55a1,1,0,0,1,0,1.16,14.73,14.73,0,0,1-1.2,1.36l-.1.1a14.73,14.73,0,0,1-1.36,1.2,1,1,0,0,1-1.17,0l-1.57-1.19a10.44,10.44,0,0,1-1.73.7l-.27,1.91a1,1,0,0,1-.83.82A16.82,16.82,0,0,1,396,291.47Zm-1-2,.84,0H396l.85,0,.25-1.8a1,1,0,0,1,.74-.8,8.38,8.38,0,0,0,2.39-1,.87.87,0,0,1,.72-.11.89.89,0,0,1,.39.19l1.43,1.08c.18-.16.4-.36.61-.57l.1-.1c.22-.22.41-.43.58-.62L403,284.39a1,1,0,0,1,0-1.09,8.15,8.15,0,0,0,1-2.31,1,1,0,0,1,.81-.79l1.82-.25c0-.24,0-.53,0-.83V279c0-.3,0-.6,0-.84l-1.78-.26a1,1,0,0,1-.81-.73,8.12,8.12,0,0,0-.95-2.37,1.24,1.24,0,0,1-.1-.2,1,1,0,0,1,.14-.9l1.11-1.46c-.16-.19-.36-.4-.57-.62l-.11-.1c-.21-.22-.43-.41-.61-.58L401.46,272a1,1,0,0,1-1.14,0,8.16,8.16,0,0,0-2.32-1,1,1,0,0,1-.72-.8l-.25-1.82c-.25,0-.54,0-.84,0H396c-.3,0-.59,0-.84,0l-.25,1.79a1,1,0,0,1-.81.82,7.94,7.94,0,0,0-2.32,1,1,1,0,0,1-.74.11,1.07,1.07,0,0,1-.38-.2l-1.42-1.08c-.18.17-.4.36-.61.57l-.1.11c-.22.21-.42.43-.58.61l1.09,1.45a1,1,0,0,1,.05,1.07.41.41,0,0,1-.05.09,8,8,0,0,0-1,2.3,1,1,0,0,1-.8.72l-1.81.25c0,.25,0,.54,0,.84V279c0,.3,0,.59,0,.84l1.79.25a1,1,0,0,1,.81.82v0a7.9,7.9,0,0,0,.94,2.27.94.94,0,0,1-.09,1.12l-1.07,1.42c.16.19.36.4.57.61l.11.11c.21.21.42.41.61.57l1.45-1.09a1,1,0,0,1,1.19,0,8.23,8.23,0,0,0,2.26.93,1,1,0,0,1,.73.81Z"/><path class="cls-4" d="M396,157.21a5.24,5.24,0,1,1,5.24-5.24A5.24,5.24,0,0,1,396,157.21Zm0-8.55a3.32,3.32,0,1,0,3.32,3.31A3.31,3.31,0,0,0,396,148.66Zm0,15.81h-.14a16.82,16.82,0,0,1-1.81-.11,1,1,0,0,1-.83-.82l-.27-1.95a10.08,10.08,0,0,1-1.73-.73L389.73,162a1,1,0,0,1-1.17,0,15.68,15.68,0,0,1-1.35-1.2l-.11-.11a17.24,17.24,0,0,1-1.2-1.35,1,1,0,0,1,0-1.17l1.19-1.57a10.27,10.27,0,0,1-.7-1.73l-1.91-.27a1,1,0,0,1-.82-.83,17.32,17.32,0,0,1-.11-1.81v-.15a17.32,17.32,0,0,1,.11-1.81,1,1,0,0,1,.83-.83l1.95-.27a9.25,9.25,0,0,1,.73-1.72L386,145.65a1,1,0,0,1,0-1.17s.54-.68,1.21-1.35l.1-.11a16.73,16.73,0,0,1,1.36-1.2,1,1,0,0,1,1.17,0l1.57,1.19a9.85,9.85,0,0,1,1.72-.7l.28-1.91a1,1,0,0,1,.83-.82,14.21,14.21,0,0,1,1.8-.11h.15a14.28,14.28,0,0,1,1.81.11,1,1,0,0,1,.83.82l.27,1.95a10,10,0,0,1,1.72.73l1.54-1.16a1,1,0,0,1,1.17,0,13.91,13.91,0,0,1,1.35,1.2l.11.1a14.73,14.73,0,0,1,1.2,1.36,1,1,0,0,1,0,1.17L405,147.33a9.68,9.68,0,0,1,.71,1.73l1.91.27a.94.94,0,0,1,.81.83,14.28,14.28,0,0,1,.11,1.81v.15a14.21,14.21,0,0,1-.11,1.8,1,1,0,0,1-.82.84l-1.94.26a10.45,10.45,0,0,1-.73,1.72l1.15,1.55a1,1,0,0,1,0,1.16,14.73,14.73,0,0,1-1.2,1.36l-.1.1a14.73,14.73,0,0,1-1.36,1.2,1,1,0,0,1-1.17,0l-1.57-1.19a10.44,10.44,0,0,1-1.73.7l-.27,1.91a1,1,0,0,1-.83.82A16.82,16.82,0,0,1,396,164.47Zm-1-1.95.84,0H396l.85,0,.25-1.8a1,1,0,0,1,.74-.8,8.38,8.38,0,0,0,2.39-1,.87.87,0,0,1,.72-.11.89.89,0,0,1,.39.19l1.43,1.08c.18-.16.4-.36.61-.57l.1-.1c.22-.22.41-.43.58-.62L403,157.39a1,1,0,0,1,0-1.09,8.15,8.15,0,0,0,1-2.31,1,1,0,0,1,.81-.79l1.82-.25c0-.24,0-.53,0-.83V152c0-.3,0-.6,0-.84l-1.78-.26a1,1,0,0,1-.81-.73,8.12,8.12,0,0,0-.95-2.37,1.24,1.24,0,0,1-.1-.2,1,1,0,0,1,.14-.9l1.11-1.46c-.16-.19-.36-.4-.57-.62l-.11-.1c-.21-.22-.43-.41-.61-.58L401.46,145a1,1,0,0,1-1.14,0,8.16,8.16,0,0,0-2.32-1,1,1,0,0,1-.72-.8l-.25-1.82c-.25,0-.54,0-.84,0H396c-.3,0-.59,0-.84,0l-.25,1.79a1,1,0,0,1-.81.82,7.94,7.94,0,0,0-2.32.95,1,1,0,0,1-.74.11,1.07,1.07,0,0,1-.38-.2l-1.42-1.08c-.18.17-.4.36-.61.57l-.1.11c-.22.21-.42.43-.58.61l1.09,1.45a1,1,0,0,1,.05,1.07.41.41,0,0,1-.05.09,8,8,0,0,0-1,2.3,1,1,0,0,1-.8.72l-1.81.25c0,.25,0,.54,0,.84V152c0,.3,0,.59,0,.84l1.79.25a1,1,0,0,1,.81.82v0a7.9,7.9,0,0,0,.94,2.27.94.94,0,0,1-.09,1.12l-1.07,1.42c.16.19.36.4.57.61l.11.11c.21.21.42.41.61.57l1.45-1.09a1,1,0,0,1,1.19,0,8.23,8.23,0,0,0,2.26.93,1,1,0,0,1,.73.81Z"/><path class="cls-4" d="M268,134.21a5.24,5.24,0,1,1,5.24-5.24A5.24,5.24,0,0,1,268,134.21Zm0-8.55a3.32,3.32,0,1,0,3.32,3.31A3.31,3.31,0,0,0,268,125.66Zm0,15.81h-.14a16.82,16.82,0,0,1-1.81-.11,1,1,0,0,1-.83-.82l-.27-1.95a10.08,10.08,0,0,1-1.73-.73L261.73,139a1,1,0,0,1-1.17,0,15.68,15.68,0,0,1-1.35-1.2l-.11-.11a17.24,17.24,0,0,1-1.2-1.35,1,1,0,0,1,0-1.17l1.19-1.57a10.27,10.27,0,0,1-.7-1.73l-1.91-.27a1,1,0,0,1-.82-.83,17.32,17.32,0,0,1-.11-1.81v-.15a17.32,17.32,0,0,1,.11-1.81,1,1,0,0,1,.83-.83l1.95-.27a9.25,9.25,0,0,1,.73-1.72L258,122.65a1,1,0,0,1,0-1.17s.54-.68,1.21-1.35l.1-.11a16.73,16.73,0,0,1,1.36-1.2,1,1,0,0,1,1.17,0l1.57,1.19a9.85,9.85,0,0,1,1.72-.7l.28-1.91a1,1,0,0,1,.83-.82,14.21,14.21,0,0,1,1.8-.11h.15a14.28,14.28,0,0,1,1.81.11,1,1,0,0,1,.83.82l.27,1.95a10,10,0,0,1,1.72.73l1.54-1.16a1,1,0,0,1,1.17,0,13.91,13.91,0,0,1,1.35,1.2l.11.1a14.73,14.73,0,0,1,1.2,1.36,1,1,0,0,1,0,1.17L277,124.33a9.68,9.68,0,0,1,.71,1.73l1.91.27a.94.94,0,0,1,.81.83,14.28,14.28,0,0,1,.11,1.81v.15a14.21,14.21,0,0,1-.11,1.8,1,1,0,0,1-.82.84l-1.94.26a10.45,10.45,0,0,1-.73,1.72l1.15,1.55a1,1,0,0,1,0,1.16,14.73,14.73,0,0,1-1.2,1.36l-.1.1a14.73,14.73,0,0,1-1.36,1.2,1,1,0,0,1-1.17,0l-1.57-1.19a10.44,10.44,0,0,1-1.73.7l-.27,1.91a1,1,0,0,1-.83.82A16.82,16.82,0,0,1,268,141.47Zm-1-1.95.84,0H268l.85,0,.25-1.8a1,1,0,0,1,.74-.8,8.38,8.38,0,0,0,2.39-1,.87.87,0,0,1,.72-.11.89.89,0,0,1,.39.19l1.43,1.08c.18-.16.4-.36.61-.57l.1-.1c.22-.22.41-.43.58-.62L275,134.39a1,1,0,0,1,0-1.09,8.15,8.15,0,0,0,1-2.31,1,1,0,0,1,.81-.79l1.82-.25c0-.24,0-.53,0-.83V129c0-.3,0-.6,0-.84l-1.78-.26a1,1,0,0,1-.81-.73,8.12,8.12,0,0,0-.95-2.37,1.24,1.24,0,0,1-.1-.2,1,1,0,0,1,.14-.9l1.11-1.46c-.16-.19-.36-.4-.57-.62l-.11-.1c-.21-.22-.43-.41-.61-.58L273.46,122a1,1,0,0,1-1.14,0,8.16,8.16,0,0,0-2.32-1,1,1,0,0,1-.72-.8l-.25-1.82c-.25,0-.54,0-.84,0H268c-.3,0-.59,0-.84,0l-.25,1.79a1,1,0,0,1-.81.82,7.94,7.94,0,0,0-2.32,1,1,1,0,0,1-.74.11,1.07,1.07,0,0,1-.38-.2l-1.42-1.08c-.18.17-.4.36-.61.57l-.1.11c-.22.21-.42.43-.58.61l1.09,1.45a1,1,0,0,1,.05,1.07.41.41,0,0,1-.05.09,8,8,0,0,0-1,2.3,1,1,0,0,1-.8.72l-1.81.25c0,.25,0,.54,0,.84V129c0,.3,0,.59,0,.84l1.79.25a1,1,0,0,1,.81.82v0a7.9,7.9,0,0,0,.94,2.27.94.94,0,0,1-.09,1.12l-1.07,1.42c.16.19.36.4.57.61l.11.11c.21.21.42.41.61.57l1.45-1.09a1,1,0,0,1,1.19,0,8.23,8.23,0,0,0,2.26.93,1,1,0,0,1,.73.81Z"/><path class="cls-4" d="M246,190.21a5.24,5.24,0,1,1,5.24-5.24A5.24,5.24,0,0,1,246,190.21Zm0-8.55a3.32,3.32,0,1,0,3.32,3.31A3.31,3.31,0,0,0,246,181.66Zm0,15.81h-.14a16.82,16.82,0,0,1-1.81-.11,1,1,0,0,1-.83-.82l-.27-1.95a10.08,10.08,0,0,1-1.73-.73L239.73,195a1,1,0,0,1-1.17,0,15.68,15.68,0,0,1-1.35-1.2l-.11-.11a17.24,17.24,0,0,1-1.2-1.35,1,1,0,0,1,0-1.17l1.19-1.57a10.27,10.27,0,0,1-.7-1.73l-1.91-.27a1,1,0,0,1-.82-.83,17.32,17.32,0,0,1-.11-1.81v-.15a17.32,17.32,0,0,1,.11-1.81,1,1,0,0,1,.83-.83l2-.27a9.25,9.25,0,0,1,.73-1.72L236,178.65a1,1,0,0,1,0-1.17s.54-.68,1.21-1.35l.1-.11a16.73,16.73,0,0,1,1.36-1.2,1,1,0,0,1,1.17,0l1.57,1.19a9.85,9.85,0,0,1,1.72-.7l.28-1.91a1,1,0,0,1,.83-.82,14.21,14.21,0,0,1,1.8-.11h.15a14.28,14.28,0,0,1,1.81.11,1,1,0,0,1,.83.82l.27,1.95a10,10,0,0,1,1.72.73l1.54-1.16a1,1,0,0,1,1.17,0,13.91,13.91,0,0,1,1.35,1.2l.11.1a14.73,14.73,0,0,1,1.2,1.36,1,1,0,0,1,0,1.17L255,180.33a9.68,9.68,0,0,1,.71,1.73l1.91.27a.94.94,0,0,1,.81.83,14.28,14.28,0,0,1,.11,1.81v.15a14.21,14.21,0,0,1-.11,1.8,1,1,0,0,1-.82.84l-1.94.26a10.45,10.45,0,0,1-.73,1.72l1.15,1.55a1,1,0,0,1,0,1.16,14.73,14.73,0,0,1-1.2,1.36l-.1.1a14.73,14.73,0,0,1-1.36,1.2,1,1,0,0,1-1.17,0l-1.57-1.19a10.44,10.44,0,0,1-1.73.7l-.27,1.91a1,1,0,0,1-.83.82A16.82,16.82,0,0,1,246,197.47Zm-1-1.95.84,0H246l.85,0,.25-1.8a1,1,0,0,1,.74-.8,8.38,8.38,0,0,0,2.39-1,.87.87,0,0,1,.72-.11.89.89,0,0,1,.39.19l1.43,1.08c.18-.16.4-.36.61-.57l.1-.1c.22-.22.41-.43.58-.62L253,190.39a1,1,0,0,1,0-1.09,8.15,8.15,0,0,0,1-2.31,1,1,0,0,1,.81-.79l1.82-.25c0-.24,0-.53,0-.83V185c0-.3,0-.6,0-.84l-1.78-.26a1,1,0,0,1-.81-.73,8.12,8.12,0,0,0-.95-2.37,1.24,1.24,0,0,1-.1-.2,1,1,0,0,1,.14-.9l1.11-1.46c-.16-.19-.36-.4-.57-.62l-.11-.1c-.21-.22-.43-.41-.61-.58L251.46,178a1,1,0,0,1-1.14,0,8.16,8.16,0,0,0-2.32-1,1,1,0,0,1-.72-.8l-.25-1.82c-.25,0-.54,0-.84,0H246c-.3,0-.59,0-.84,0l-.25,1.79a1,1,0,0,1-.81.82,7.94,7.94,0,0,0-2.32.95,1,1,0,0,1-.74.11,1.07,1.07,0,0,1-.38-.2l-1.42-1.08c-.18.17-.4.36-.61.57l-.1.11c-.22.21-.42.43-.58.61l1.09,1.45a1,1,0,0,1,0,1.07.41.41,0,0,1,0,.09,8,8,0,0,0-1,2.3,1,1,0,0,1-.8.72l-1.81.25c0,.25,0,.54,0,.84V185c0,.3,0,.59,0,.84l1.79.25a1,1,0,0,1,.81.82v0a7.9,7.9,0,0,0,.94,2.27.94.94,0,0,1-.09,1.12l-1.07,1.42c.16.19.36.4.57.61l.11.11c.21.21.42.41.61.57l1.45-1.09a1,1,0,0,1,1.19,0,8.23,8.23,0,0,0,2.26.93,1,1,0,0,1,.73.81Z"/><text class="cls-14" transform="translate(163.49 60.35)">FLOOR ONE</text></g></g></svg>